<?xml version="1.0" encoding="utf-8"?>
<!-- Generator: Adobe Illustrator 19.1.0, SVG Export Plug-In . SVG Version: 6.00 Build 0)  -->
<svg version="1.1" id="Layer_1" xmlns="http://www.w3.org/2000/svg" xmlns:xlink="http://www.w3.org/1999/xlink" x="0px" y="0px"
	 viewBox="-207.9 271 157.9 59" style="enable-background:new -207.9 271 157.9 59;" xml:space="preserve">
<style type="text/css">
	.st0{fill:#3C3C3B;}
</style>
<g>
	<g>
		<path class="st0" d="M-153.5,295.7c0-1.4-1.1-1.5-1.8-1.5v-0.4l3.5-0.5v9.9l4.3-4.5h1.6l-4.2,4.4l5,6.2h-2.1l-4.5-5.6l0,0v5.6
			h-1.8C-153.5,309.3-153.5,295.7-153.5,295.7z"/>
		<path class="st0" d="M-143.4,300.9c0-1.4-1.1-1.4-1.7-1.5V299l3.5-0.5v10.9h-1.8V300.9z M-143.9,295c0-0.7,0.6-1.3,1.3-1.3
			c0.7,0,1.3,0.6,1.3,1.3c0,0.8-0.6,1.3-1.3,1.3C-143.3,296.3-143.9,295.7-143.9,295"/>
		<path class="st0" d="M-134.1,309.5c-0.4,0.1-0.9,0.1-1.3,0.1c-3.1,0-3.3-1.1-3.3-3.2v-6.9h-1.8v-0.8h1.8v-1.9l1.7-1.5v3.5h2.8v0.8
			h-2.8v7.4c0,1.4,0.8,1.7,1.9,1.7c0.3,0,0.6,0,0.9-0.1v0.9H-134.1z"/>
		<path class="st0" d="M-125.9,309.2c-0.5,0.2-1.3,0.4-2.5,0.4c-4,0-5.5-2.4-5.5-5.9c0-2.9,1.2-5.2,4.5-5.2c2.5,0,3.9,1.4,3.9,2.9
			h-2.1c0-0.9-0.4-2-1.9-2c-1.4,0-2.4,1.3-2.4,3.6c0,2.7,1.4,5.8,4.7,5.8c0.4,0,0.8-0.1,1.3-0.1V309.2z"/>
		<path class="st0" d="M-124.3,295.7c0-1.4-1.1-1.5-1.8-1.5v-0.4l3.5-0.5v8.2l0,0c0.4-0.8,1.5-3.1,3.6-3.1c2.7,0,2.7,2.5,2.7,4.1
			v6.8h-1.7v-6.9c0-1.4,0-2.9-1.5-2.9c-1.2,0-3.1,2.4-3.1,4.8v5h-1.8L-124.3,295.7L-124.3,295.7z"/>
		<path class="st0" d="M-106.4,309.2c-0.3,0.1-1.4,0.4-2.8,0.4c-3.4,0-5.3-2.1-5.3-5.9c0-3.3,1.3-5.2,4.6-5.2c2.2,0,3.9,1.3,3.9,4
			v0.3h-6.7v0.5c0,2.2,1.6,5.5,4.8,5.5c0.5,0,1.1-0.1,1.6-0.3L-106.4,309.2L-106.4,309.2z M-108.1,301.8c0-1.3-0.8-2.4-2.2-2.4
			c-2.1,0-2.4,1.9-2.5,2.7h4.7V301.8z"/>
		<path class="st0" d="M-104.1,300.9c0-1.4-1.1-1.4-1.7-1.5V299l3.5-0.5v3l0,0c0.4-0.9,1.5-3,3.8-3c2.2,0,2.7,1.1,2.7,2.7v8.2h-1.8
			V302c0-1.2,0-2.4-1.6-2.4c-1.7,0-3.2,2.8-3.2,4.3v5.5h-1.8L-104.1,300.9L-104.1,300.9z"/>
		<path class="st0" d="M-88,300.2c-0.4-0.2-1.5-0.9-2.8-0.9c-1,0-1.9,0.4-1.9,1.5c0,2.3,5.4,1.9,5.4,5.5c0,2.3-1.7,3.3-4.1,3.3
			c-1.5,0-2.4-0.3-3-0.5v-1.4c0.2,0.1,1.6,1,3,1s2.4-0.5,2.4-2c0-2.3-5.4-2.3-5.4-5.3c0-1.8,1.1-3,3.7-3c1.1,0,2.2,0.3,2.5,0.4v1.4
			H-88z"/>
		<path class="st0" d="M-152.6,312.6c0-0.8-0.5-0.8-1.6-0.9v-0.2l3-0.3v7.9h-1.4V312.6z"/>
		<path class="st0" d="M-148.7,312.6c0-0.9-0.2-1-1.6-1.2v-0.2h3.2l5.1,6.4l0,0v-6.4h0.8v7.9h-1.2l-5.5-6.9l0,0v6.9h-0.8V312.6z"/>
		<path class="st0" d="M-136.9,311.7h-1.5c-1.4,0-1.4,0.4-1.5,1.2h-0.5l0.1-1.6h8.1l0.1,1.6h-0.5c-0.1-0.7-0.1-1.2-1.5-1.2h-1.4v7.5
			h-1.4C-136.9,319.2-136.9,311.7-136.9,311.7z"/>
		<path class="st0" d="M-130.2,312.5c0-0.7-0.2-0.9-1.6-1v-0.2h7.6l0.1,1.4h-0.5c-0.2-0.6-0.2-1-1.5-1h-1.7c-0.9,0-1,0.1-1,0.8v2.3
			h2.1c1.3,0,1.4-0.4,1.6-1h0.4v2.4h-0.4c-0.2-0.7-0.2-1-1.6-1h-2.1v2.8c0,0.7,0.2,0.7,1.3,0.7h1.7c1.1,0,1.2-0.3,1.4-1.2h0.5
			l-0.1,1.6h-6.3L-130.2,312.5L-130.2,312.5z"/>
		<path class="st0" d="M-121.9,312.5c0-0.8-0.3-0.9-1.6-1.1v-0.2h4.5c2,0,3.6,0.3,3.6,2c0,1.3-1.4,1.8-2.8,1.9l3.3,4h-1.6l-3.2-3.9
			h-0.8v3.9h-1.4V312.5z M-120.5,314.8h0.4c1.2,0,3.1,0,3.1-1.6c0-1.1-1.1-1.5-2.4-1.5c-1.1,0-1.2,0.1-1.2,0.8L-120.5,314.8
			L-120.5,314.8z"/>
		<path class="st0" d="M-113.8,312.6c0-0.9-0.2-1-1.6-1.2v-0.2h3.2l5.1,6.4l0,0v-6.4h0.8v7.9h-1.2l-5.5-6.9l0,0v6.9h-0.8V312.6z"/>
		<path class="st0" d="M-102.1,312.6c0.1-0.2,0.2-0.4,0.2-0.6c0-0.3-0.4-0.4-1.2-0.6v-0.2h2.8l4.2,7.9h-1.6l-1.4-2.6h-4.1l-1.3,2.6
			h-1L-102.1,312.6z M-102.9,316.1h3.7l-1.8-3.6L-102.9,316.1z"/>
		<path class="st0" d="M-94.1,311.7h-1.5c-1.4,0-1.4,0.4-1.5,1.2h-0.5l0.1-1.6h8.1l0.1,1.6h-0.5c-0.1-0.7-0.1-1.2-1.5-1.2h-1.5v7.5
			h-1.4v-7.5H-94.1z"/>
		<path class="st0" d="M-87.5,312.6c0-0.8-0.5-0.8-1.6-0.9v-0.2l3-0.3v7.9h-1.4V312.6z"/>
		<path class="st0" d="M-84.6,315.2c0-2.5,1-4.1,4.2-4.1s4.2,1.8,4.2,4.1c0,2.5-1,4.1-4.2,4.1C-83.7,319.3-84.6,317.6-84.6,315.2
			 M-77.8,315.2c0-1.5-0.1-3.7-2.6-3.7s-2.7,2-2.7,3.7c0,1.5,0.1,3.6,2.7,3.6C-77.9,318.8-77.8,316.8-77.8,315.2"/>
		<path class="st0" d="M-74.7,312.6c0-0.9-0.2-1-1.6-1.2v-0.2h3.2l5.1,6.4l0,0v-6.4h0.8v7.9h-1.2l-5.5-6.9l0,0v6.9h-0.8V312.6z"/>
		<path class="st0" d="M-63,312.6c0.1-0.2,0.2-0.4,0.2-0.6c0-0.3-0.4-0.4-1.2-0.6v-0.2h2.8l4.2,7.9h-1.6l-1.4-2.6h-4.1l-1.3,2.6h-1
			L-63,312.6z M-63.8,316.1h3.7l-1.8-3.6L-63.8,316.1z"/>
		<path class="st0" d="M-56.2,312.6c0-0.8-0.5-0.8-1.6-0.9v-0.2l3-0.3v6.4c0,1,0,1,1.3,1h1.4c1.2,0,1.3-0.5,1.4-1.3h0.5l-0.1,1.7h-6
			v-6.4H-56.2z"/>
	</g>
	<g>
		<path class="st0" d="M-207.8,271v59h45.2v-59H-207.8z M-165.6,320.7h-26.3v-1.4c1.8,0,2.9-0.2,2.9-1.3c0-0.4-0.6-1.3-1.3-2.1
			l-8.2-10.8h-0.1v8.8c0,4.3,0.9,5.5,4.2,5.5v1.4h-10.3v-43l6.1-0.8v27.4l7.5-7.7c1-0.9,1.6-1.8,1.6-2.4c0-0.7-0.8-1.1-2.6-1.1v-1.4
			h26.5V320.7z M-165.6,288h-6.4v-6.4h6.4V288z"/>
		<path class="st0" d="M-183.5,314.6c2.5,3.1,3.8,4.6,7.3,4.7c3.3-0.1,4.2-1.3,4.2-5.5v-15.6c0-4.5-2.3-5.1-4.7-5.1h-1.6l0,0
			c-4,0-5.5,0.9-8.4,3.8l-5.9,6L-183.5,314.6z"/>
	</g>
</g>
</svg>
