<?xml version="1.0" encoding="utf-8"?>
<!-- Generator: Adobe Illustrator 19.1.0, SVG Export Plug-In . SVG Version: 6.00 Build 0)  -->
<svg version="1.1" id="Layer_1" xmlns="http://www.w3.org/2000/svg" xmlns:xlink="http://www.w3.org/1999/xlink" x="0px" y="0px"
	 viewBox="0 0 45.9 59.8" style="enable-background:new 0 0 45.9 59.8;" xml:space="preserve">
<style type="text/css">
	.st0{fill:#3C3C3B;}
</style>
<g>
	<g>
		<path class="st0" d="M0.3,0.4v59h45.2v-59H0.3z M42.4,50.1H16.1v-1.4c1.8,0,2.9-0.2,2.9-1.3c0-0.4-0.6-1.3-1.3-2.1L9.6,34.4H9.5
			v8.8c0,4.3,0.9,5.5,4.2,5.5v1.4H3.3V7.1l6.1-0.8v27.4l7.5-7.7c1-0.9,1.6-1.8,1.6-2.4c0-0.7-0.8-1.1-2.6-1.1v-1.4l26.5,0V50.1z
			 M42.4,17.4H36V11h6.4V17.4z"/>
		<path class="st0" d="M24.6,44c2.5,3.1,3.8,4.6,7.3,4.7c3.3-0.1,4.2-1.3,4.2-5.5V27.5c0-4.5-2.3-5.1-4.7-5.1h-1.6v0
			c-4,0-5.5,0.9-8.4,3.8l-5.9,6L24.6,44z"/>
	</g>
</g>
</svg>
