<?xml version="1.0" encoding="utf-8"?>
<!-- Generator: Adobe Illustrator 19.1.0, SVG Export Plug-In . SVG Version: 6.00 Build 0)  -->
<svg version="1.1" id="Layer_1" xmlns="http://www.w3.org/2000/svg" xmlns:xlink="http://www.w3.org/1999/xlink" x="0px" y="0px"
	 viewBox="-262.2 270.7 45.8 59.7" style="enable-background:new -262.2 270.7 45.8 59.7;" xml:space="preserve">
<style type="text/css">
	.st0{fill:#FFFFFF;}
</style>
<g>
	<path class="st0" d="M-262,271v59h45.2v-59H-262z M-219.9,320.7h-26.3v-1.4c1.8,0,2.9-0.2,2.9-1.3c0-0.4-0.6-1.3-1.3-2.1l-8.2-10.8
		h-0.1v8.8c0,4.3,0.9,5.5,4.2,5.5v1.4H-259v-43l6.1-0.8v27.4l7.5-7.7c1-0.9,1.6-1.8,1.6-2.4c0-0.7-0.8-1.1-2.6-1.1v-1.4h26.5V320.7z
		 M-219.9,288h-6.4v-6.4h6.4V288z"/>
	<path class="st0" d="M-237.7,314.6c2.5,3.1,3.8,4.6,7.3,4.7c3.3-0.1,4.2-1.3,4.2-5.5v-15.6c0-4.5-2.3-5.1-4.7-5.1h-1.6l0,0
		c-4,0-5.5,0.9-8.4,3.8l-5.9,6L-237.7,314.6z"/>
</g>
</svg>
